<svg xmlns="http://www.w3.org/2000/svg" viewBox="0 0 1200 480" role="img" aria-label="Esalen opens at Big Sur in 1962. Branden&#x27;s self-esteem theory follows in 1969. California&#x27;s self-esteem task force is created in 1986 and in 1989 declares a link to social problems definitively confirmed, a claim the researchers knew was false. The Human Potential Movement then feeds Silicon Valley&#x27;s founding mythology, and the attention economy optimizes for self-regard; AI is the newest amplifier.">
<rect width="100%" height="100%" fill="#F2F1ED"/><style>.l{font:700 15px "JetBrains Mono",Courier,monospace;letter-spacing:2px}.s{font:700 13px "JetBrains Mono",Courier,monospace;letter-spacing:1.5px}.n{font:700 22px Inter,Arial,sans-serif}.b{font:900 26px Inter,Arial,sans-serif;letter-spacing:-.5px}.t{font:400 18px Inter,Arial,sans-serif}.k{font:900 40px Inter,Arial,sans-serif;letter-spacing:-1px}</style>
<defs><marker id="a" viewBox="0 0 10 10" refX="5" refY="5" markerWidth="7" markerHeight="7" orient="auto"><path d="M0 0L10 5L0 10z" fill="#1A1A1A"/></marker><marker id="g" viewBox="0 0 10 10" refX="5" refY="5" markerWidth="7" markerHeight="7" orient="auto"><path d="M0 0L10 5L0 10z" fill="#0B6B2E"/></marker></defs>
<text x="50" y="56" class="l" text-anchor="start" fill="#1A1A1A">FIG. 01 // HOW THE OPERATING SYSTEM WAS INSTALLED</text>
<rect x="56" y="126" width="164" height="220" fill="#1A1A1A"/>
<rect x="50" y="120" width="164" height="220" fill="#FFFFFF" stroke="#1A1A1A" stroke-width="3"/>
<text x="68" y="154" class="b" text-anchor="start" fill="#1A1A1A">1962</text>
<text x="68" y="188" class="t" text-anchor="start" fill="#1A1A1A">Esalen opens</text>
<text x="68" y="213" class="t" text-anchor="start" fill="#1A1A1A">at Big Sur</text>
<path d="M216 230 L234 230" fill="none" stroke="#1A1A1A" stroke-width="3" marker-end="url(#a)"/>
<rect x="242" y="126" width="164" height="220" fill="#1A1A1A"/>
<rect x="236" y="120" width="164" height="220" fill="#FFFFFF" stroke="#1A1A1A" stroke-width="3"/>
<text x="254" y="154" class="b" text-anchor="start" fill="#1A1A1A">1969</text>
<text x="254" y="188" class="t" text-anchor="start" fill="#1A1A1A">Branden&#x27;s</text>
<text x="254" y="213" class="t" text-anchor="start" fill="#1A1A1A">self-esteem</text>
<text x="254" y="238" class="t" text-anchor="start" fill="#1A1A1A">theory</text>
<path d="M402 230 L420 230" fill="none" stroke="#1A1A1A" stroke-width="3" marker-end="url(#a)"/>
<rect x="428" y="126" width="164" height="220" fill="#1A1A1A"/>
<rect x="422" y="120" width="164" height="220" fill="#FFFFFF" stroke="#1A1A1A" stroke-width="3"/>
<text x="440" y="154" class="b" text-anchor="start" fill="#1A1A1A">1986</text>
<text x="440" y="188" class="t" text-anchor="start" fill="#1A1A1A">California</text>
<text x="440" y="213" class="t" text-anchor="start" fill="#1A1A1A">creates a</text>
<text x="440" y="238" class="t" text-anchor="start" fill="#1A1A1A">self-esteem</text>
<text x="440" y="263" class="t" text-anchor="start" fill="#1A1A1A">task force</text>
<path d="M588 230 L606 230" fill="none" stroke="#1A1A1A" stroke-width="3" marker-end="url(#a)"/>
<rect x="614" y="126" width="164" height="220" fill="#1A1A1A"/>
<rect x="608" y="120" width="164" height="220" fill="#00FF41" stroke="#1A1A1A" stroke-width="3"/>
<text x="626" y="154" class="b" text-anchor="start" fill="#1A1A1A">1989</text>
<text x="626" y="188" class="t" text-anchor="start" fill="#1A1A1A">Report: link</text>
<text x="626" y="213" class="t" text-anchor="start" fill="#1A1A1A">“definitively</text>
<text x="626" y="238" class="t" text-anchor="start" fill="#1A1A1A">confirmed.”</text>
<text x="626" y="263" class="t" text-anchor="start" fill="#1A1A1A">It wasn&#x27;t</text>
<path d="M774 230 L792 230" fill="none" stroke="#1A1A1A" stroke-width="3" marker-end="url(#a)"/>
<rect x="800" y="126" width="164" height="220" fill="#1A1A1A"/>
<rect x="794" y="120" width="164" height="220" fill="#FFFFFF" stroke="#1A1A1A" stroke-width="3"/>
<text x="812" y="154" class="b" text-anchor="start" fill="#1A1A1A">Then</text>
<text x="812" y="188" class="t" text-anchor="start" fill="#1A1A1A">Human</text>
<text x="812" y="213" class="t" text-anchor="start" fill="#1A1A1A">potential</text>
<text x="812" y="238" class="t" text-anchor="start" fill="#1A1A1A">becomes</text>
<text x="812" y="263" class="t" text-anchor="start" fill="#1A1A1A">Silicon</text>
<text x="812" y="288" class="t" text-anchor="start" fill="#1A1A1A">Valley</text>
<text x="812" y="313" class="t" text-anchor="start" fill="#1A1A1A">founder myth</text>
<path d="M960 230 L978 230" fill="none" stroke="#1A1A1A" stroke-width="3" marker-end="url(#a)"/>
<rect x="986" y="126" width="164" height="220" fill="#1A1A1A"/>
<rect x="980" y="120" width="164" height="220" fill="#FFFFFF" stroke="#1A1A1A" stroke-width="3"/>
<text x="998" y="154" class="b" text-anchor="start" fill="#1A1A1A">Now</text>
<text x="998" y="188" class="t" text-anchor="start" fill="#1A1A1A">AI: the most</text>
<text x="998" y="213" class="t" text-anchor="start" fill="#1A1A1A">powerful</text>
<text x="998" y="238" class="t" text-anchor="start" fill="#1A1A1A">validation</text>
<text x="998" y="263" class="t" text-anchor="start" fill="#1A1A1A">engine yet</text>
<text x="50" y="410" class="t" text-anchor="start" fill="#1A1A1A">1989 is where the Pretend Era begins: private knowledge and public claim part ways, and nobody corrects the</text>
<text x="50" y="435" class="t" text-anchor="start" fill="#1A1A1A">record (§1.3).</text>
</svg>